<svg xmlns="http://www.w3.org/2000/svg" width="248.852" height="36.179" viewBox="0 0 248.852 36.179"><g transform="translate(-48.727 -139.695)"><path d="M67.747,139.694,73.625,151.6l13.143,1.91-9.51,9.27,2.245,13.09-11.755-6.18-11.755,6.18,2.245-13.09-9.51-9.27,13.143-1.91Z" fill="#397bc7"/><path d="M120.45,139.694l5.878,11.909,13.143,1.91-9.51,9.27,2.245,13.09-11.755-6.18-11.755,6.18,2.245-13.09-9.51-9.27,13.143-1.91Z" fill="#397bc7"/><path d="M173.153,139.694,179.03,151.6l13.143,1.91-9.51,9.27,2.245,13.09-11.755-6.18-11.755,6.18,2.245-13.09-9.51-9.27,13.143-1.91Z" fill="#397bc7"/><path d="M225.856,139.694l5.878,11.909,13.143,1.91-9.51,9.27,2.245,13.09-11.755-6.18-11.755,6.18,2.245-13.09-9.51-9.27,13.143-1.91Z" fill="#397bc7"/><path d="M278.558,139.694l5.878,11.909,13.143,1.91-9.51,9.27,2.245,13.09-11.755-6.18-11.755,6.18,2.245-13.09-9.51-9.27,13.143-1.91Z" fill="#397bc7"/></g></svg>