<?xml version="1.0" encoding="utf-8" ?>
<svg enable-background="new 0 0 395.3 181.4" viewBox="0 0 395.3 181.4" xmlns="http://www.w3.org/2000/svg"><path d="m205.9 178.2h-19.1c-12.5 0-22.3-6-25.6-15.6-3.1-8.9.5-18.8 9.4-25.8l-24.3-42c-4.3 2.1-8.8 5.1-13.2 8.8-7 5.8-14.3 13-22 20.6-25.8 25.3-55.1 54-91.7 54h-19.4l103-178.2 47.7 82.5c8.6-2.6 16.8-2.6 24.2.2 10.4 3.9 17.6 13 19.4 24.1 1.7 11.3-2.3 22.5-11 31.9zm-30.3-32.7c-4.7 4.2-6.6 9.4-5.1 13.9 1.9 5.5 8.1 8.9 16.3 8.9h2zm-158.5 22.8h2.3c32.6 0 60.3-27.2 84.8-51.2 7.9-7.7 15.3-15.1 22.6-21.1 4.8-4 9.7-7.3 14.6-9.7l-38.4-66.5zm138.7-76.9 22.2 38.3c7.2-9 7-17.6 6.5-21.4-1.2-7.6-6-13.7-13.1-16.4-4.7-1.7-10-1.9-15.6-.5z" fill="#482c7a"/><g fill="#010101"><path d="m229.3 55.1v29.7h-4.3v-29.7h-9.6l.8-4.1h22l.7 4.1z"/><path d="m261.4 71.9v12.9h-4.1v-12.6c0-3.7-2.1-5.6-5.2-5.6-3.3 0-5.7 2.4-5.7 6.1v12.1h-4.1v-34.4l4.1-.7v16.2c1.5-1.9 3.9-3 6.6-3 4.9 0 8.4 3.3 8.4 9z"/><path d="m284.9 77.9 1.4 3.5c-2.7 2.5-5.9 3.9-9.5 3.9-6.6 0-11.4-4.9-11.4-11.2s4.9-11.2 11.3-11.2c5.4 0 9.5 3.5 10.2 9.1l-17 5.5c1.2 2.6 3.7 4.3 7 4.3 2.9 0 5.6-1.2 8-3.9zm-15.7-3.7 13.2-4.3c-.9-2.2-3.1-3.5-5.7-3.5-4.2 0-7.5 3.4-7.5 7.8z"/><path d="m237.1 116.8h-12.6l-4.6 10.8h-4.7l15.6-35 15.6 35h-4.7zm-1.6-3.9-4.6-10.9-4.7 10.9z"/><path d="m266.1 120.7 1.4 3.5c-2.7 2.5-5.9 3.9-9.5 3.9-6.6 0-11.4-4.9-11.4-11.2s4.9-11.2 11.3-11.2c5.4 0 9.5 3.5 10.2 9.1l-17 5.5c1.2 2.6 3.7 4.3 7 4.3 2.9 0 5.6-1.2 8-3.9zm-15.7-3.7 13.2-4.3c-.9-2.2-3.1-3.5-5.7-3.5-4.2-.1-7.5 3.4-7.5 7.8z"/><path d="m271 125.9.6-3.5c2.1 1.4 4.1 2.2 6.1 2.2s3.4-1.2 3.4-3c0-1.4-.7-2.4-3.6-3.3l-.9-.3c-3.3-1.2-5.1-3.4-5.1-6.4 0-3.4 2.7-6 6.7-6 1.9 0 4.1.6 6 1.6l-.7 3.5c-1.9-1.2-3.9-1.7-5.2-1.7-2 0-3 1.1-3 2.6 0 1.2.7 2.1 3.3 3l.9.3c3.7 1.2 5.6 3.4 5.6 6.6 0 3.8-2.9 6.5-7.2 6.5-2.4.1-4.9-.8-6.9-2.1z"/><path d="m295.4 109.8v11.2c0 2.1 1.2 3.3 3 3.3 1 0 2.3-.3 3-.7v3.6c-.8.4-2.2.7-3.7.7-4 0-6.5-2.5-6.5-6.6v-11.6h-3.2l.7-3.6h2.6v-4.6l4.1-2.3v6.9h6.1v3.6h-6.1z"/><path d="m325.6 114.6v12.9h-4.1v-12.5c0-3.7-2.1-5.6-5.2-5.6-3.3 0-5.7 2.4-5.7 6.1v12.1h-4.1v-34.4l4.1-.7v16.2c1.5-1.9 3.9-3 6.6-3 4.9 0 8.4 3.3 8.4 8.9z"/><path d="m348.1 120.7 1.4 3.5c-2.7 2.5-5.9 3.9-9.5 3.9-6.6 0-11.4-4.9-11.4-11.2s4.9-11.2 11.3-11.2c5.4 0 9.5 3.5 10.2 9.1l-17 5.5c1.2 2.6 3.7 4.3 7 4.3 2.9 0 5.6-1.2 8-3.9zm-15.6-3.7 13.2-4.3c-.9-2.2-3.1-3.5-5.7-3.5-4.3-.1-7.5 3.4-7.5 7.8z"/><path d="m359.1 109.8v11.2c0 2.1 1.2 3.3 3 3.3 1 0 2.3-.3 3-.7v3.6c-.8.4-2.2.7-3.7.7-4 0-6.5-2.5-6.5-6.6v-11.6h-3.2l.7-3.6h2.6v-4.6l4.1-2.3v6.9h6.1v3.6h-6.1z"/><path d="m368.8 98.1c0-1.5 1.2-2.7 2.8-2.7 1.5 0 2.8 1.2 2.8 2.7s-1.2 2.8-2.8 2.8c-1.6-.1-2.8-1.3-2.8-2.8zm.7 8.4 4.1-.7v21.8h-4.1z"/><path d="m378.1 116.9c0-6.2 5.1-11.2 11.4-11.2 1.9 0 3.8.4 5.6 1.4l-.7 3.7c-1.5-.9-3.2-1.4-4.9-1.4-4.3 0-7.4 3.3-7.4 7.5s3.1 7.6 7.4 7.6c1.9 0 3.6-.7 5.1-1.5l.6 3.8c-1.8.9-3.8 1.4-5.8 1.4-6.2-.1-11.3-5.1-11.3-11.3z"/><path d="m216.6 167.2.9-4.5c2.5 2.4 5.8 4.2 9.3 4.2 3.8 0 6.2-2.4 6.2-5.6 0-2.4-1.4-4.6-4.9-5.7l-2.2-.7c-6.3-2.1-8.3-5.8-8.3-9.8 0-5.2 4.1-9.1 9.8-9.1 2.8 0 6 .9 8.7 2.7l-.8 4.3c-2.8-2-5.4-3-8-3-3.3 0-5.5 2.1-5.5 5.1 0 2.4 1.3 4.3 5.6 5.7l2.2.7c5.4 1.7 7.7 5.4 7.7 9.7 0 5.5-4.2 9.7-10.5 9.7-4.3 0-7.8-1.8-10.2-3.7z"/><path d="m239.8 159.7c0-6.3 5-11.2 11.4-11.2s11.5 4.9 11.5 11.2-5.1 11.2-11.5 11.2-11.4-4.9-11.4-11.2zm18.9 0c0-4.3-3.2-7.5-7.4-7.5s-7.4 3.2-7.4 7.5 3.2 7.6 7.4 7.6c4.2-.1 7.4-3.3 7.4-7.6z"/><path d="m265.4 159.7c0-6.2 5.1-11.2 11.4-11.2 1.9 0 3.8.4 5.6 1.4l-.7 3.7c-1.5-.9-3.2-1.4-4.9-1.4-4.3 0-7.4 3.3-7.4 7.5s3.1 7.6 7.4 7.6c1.9 0 3.6-.7 5.1-1.5l.6 3.8c-1.8.9-3.8 1.4-5.8 1.4-6.2-.1-11.3-5.1-11.3-11.3z"/><path d="m286.4 140.9c0-1.5 1.2-2.7 2.8-2.7 1.5 0 2.8 1.2 2.8 2.7s-1.2 2.8-2.8 2.8c-1.6-.1-2.8-1.3-2.8-2.8zm.7 8.4 4.1-.7v21.8h-4.1z"/><path d="m315.2 163.5 1.4 3.5c-2.7 2.5-5.9 3.9-9.5 3.9-6.6 0-11.4-4.9-11.4-11.2s4.9-11.2 11.3-11.2c5.4 0 9.5 3.5 10.2 9.1l-17 5.5c1.2 2.6 3.7 4.3 7 4.3 2.9 0 5.6-1.2 8-3.9zm-15.7-3.7 13.2-4.3c-.9-2.2-3.1-3.5-5.7-3.5-4.3-.1-7.5 3.4-7.5 7.8z"/><path d="m327.2 152.6v11.2c0 2.1 1.2 3.3 3 3.3 1 0 2.3-.3 3-.7v3.6c-.8.4-2.2.7-3.7.7-4 0-6.5-2.5-6.5-6.6v-11.6h-3.2l.7-3.6h2.6v-4.6l4.1-2.3v6.9h6.1v3.6h-6.1z"/><path d="m357.7 149-15.5 32.4h-4.4l6.9-13.6-9-18.8h4.4l6.6 14.6 6.6-14.6z"/><path d="m365.1 149.7c-2.1 0-3.8-1.7-3.8-3.8s1.7-3.8 3.8-3.8 3.8 1.7 3.8 3.8c-.1 2.1-1.7 3.8-3.8 3.8zm0-7c-1.8 0-3.3 1.5-3.3 3.3s1.5 3.3 3.3 3.3 3.3-1.5 3.3-3.3c0-1.9-1.5-3.3-3.3-3.3zm1 5.4-1.1-1.7h-.8v1.7h-.5v-4.3h1.8c.7 0 1.3.5 1.3 1.3 0 1-.9 1.3-1.1 1.3l1.2 1.7zm-.7-3.8h-1.2v1.6h1.2c.4 0 .8-.3.8-.8s-.4-.8-.8-.8z"/></g></svg>