<svg xmlns="http://www.w3.org/2000/svg" width="27.419" height="34.604" viewBox="0 0 27.419 34.604"><path d="M347.288,473.85a13.711,13.711,0,0,0-21.96,15.822c1.74,3.476,8.6,11.4,11.757,14.556a.722.722,0,0,0,1.018,0c3.156-3.157,10.018-11.081,11.757-14.556a13.714,13.714,0,0,0-2.572-15.822Zm1.285,15.177c-1.561,3.119-7.764,10.346-10.979,13.664-3.215-3.318-9.416-10.544-10.979-13.664a12.146,12.146,0,0,1-1.291-5.484,12.27,12.27,0,1,1,24.54,0A12.142,12.142,0,0,1,348.573,489.027Z" transform="translate(-323.885 -469.834)" fill="#334d5e"/><path d="M345.267,481.031a.72.72,0,0,0-.559-.486l-4.382-.781-2.1-3.925a.719.719,0,0,0-1.269,0l-2.1,3.925-4.381.781a.72.72,0,0,0-.392,1.208l3.086,3.207-.612,4.409a.72.72,0,0,0,1.028.746l4-1.943,4,1.943a.708.708,0,0,0,.314.073.719.719,0,0,0,.713-.819l-.611-4.409,3.086-3.207A.721.721,0,0,0,345.267,481.031Zm-4.532,3.183a.72.72,0,0,0-.194.6l.474,3.419-3.106-1.507a.71.71,0,0,0-.629,0l-3.105,1.507.473-3.419a.717.717,0,0,0-.194-.6l-2.393-2.488,3.4-.606a.719.719,0,0,0,.509-.37l1.627-3.044,1.626,3.044a.718.718,0,0,0,.508.37l3.4.607Z" transform="translate(-323.885 -469.834)" fill="#334d5e"/></svg>