<svg xmlns="http://www.w3.org/2000/svg" width="37.889" height="37.892" viewBox="0 0 37.889 37.892"><g transform="translate(270.057 -1489.637) rotate(20)"><g transform="translate(265.217 1488.707)"><g transform="translate(0 0)"><path d="M291.991,1518.272l-.144,0-.109,0h-.005l-.382,0a24.8,24.8,0,0,1-5.233-.669,26.025,26.025,0,0,1-12.916-7.238l-.06-.056a26,26,0,0,1-7.249-12.932,24.7,24.7,0,0,1-.665-5.378c0-.032,0-.068,0-.1s0-.087,0-.131a2.761,2.761,0,0,1,1.081-2.587,3.667,3.667,0,0,1,2.36-.434l.092,0c.113.006.2.01.284.01l.887,0,.877,0h.52c.591,0,1.2.008,1.8.008a2.708,2.708,0,0,1,2.663,2.236l1,5.639a3.382,3.382,0,0,1-1.285,3.29l-.948.722c-.537.415-.787.725-.807,1-.022.3.188.73.68,1.384a30.065,30.065,0,0,0,2.794,3.235,30.534,30.534,0,0,0,3.232,2.794,2.477,2.477,0,0,0,1.385.676c.282-.021.584-.264,1.01-.812l.712-.941a3.4,3.4,0,0,1,3.293-1.287l5.637,1a2.7,2.7,0,0,1,2.236,2.663c0,.516,0,1.04.008,1.546v.307c0,.734.008,1.492.008,2.239,0,.08.006.18.013.285l0,.088a3.658,3.658,0,0,1-.435,2.358h0A2.584,2.584,0,0,1,291.991,1518.272Zm-.251-.992.13,0,.121,0a1.579,1.579,0,0,0,1.5-.643h0a2.8,2.8,0,0,0,.272-1.766l0-.071c-.008-.121-.015-.236-.015-.349,0-.744,0-1.5-.008-2.234v-.3c0-.508-.008-1.034-.008-1.553a1.715,1.715,0,0,0-1.42-1.691l-5.635-1a2.41,2.41,0,0,0-2.337.911l-.717.947a2.59,2.59,0,0,1-1.719,1.194,3.142,3.142,0,0,1-2.052-.871,31.518,31.518,0,0,1-3.337-2.886,31.065,31.065,0,0,1-2.885-3.34,3.133,3.133,0,0,1-.876-2.05,2.567,2.567,0,0,1,1.191-1.715l.951-.724a2.4,2.4,0,0,0,.911-2.333l-1-5.639a1.721,1.721,0,0,0-1.693-1.42c-.6,0-1.212,0-1.8-.008h-.52l-.877,0-.887,0c-.1,0-.209-.005-.331-.012l-.1-.005a2.821,2.821,0,0,0-1.753.272,1.785,1.785,0,0,0-.639,1.744v.013c0,.038,0,.076,0,.114s0,.089,0,.132a23.79,23.79,0,0,0,.643,5.166,25.011,25.011,0,0,0,6.973,12.434l.064.06a25.043,25.043,0,0,0,12.432,6.975,23.885,23.885,0,0,0,5.027.647h.005Z" transform="translate(-265.217 -1488.707)" fill="#334d5e"/></g><g transform="translate(0 0)"><path d="M291.991,1518.272l-.144,0-.109,0h-.005l-.382,0a24.8,24.8,0,0,1-5.233-.669,26.025,26.025,0,0,1-12.916-7.238l-.06-.056a26,26,0,0,1-7.249-12.932,24.7,24.7,0,0,1-.665-5.378c0-.032,0-.068,0-.1s0-.087,0-.131a2.761,2.761,0,0,1,1.081-2.587,3.667,3.667,0,0,1,2.36-.434l.092,0c.113.006.2.01.284.01l.887,0,.877,0h.52c.591,0,1.2.008,1.8.008a2.708,2.708,0,0,1,2.663,2.236l1,5.639a3.382,3.382,0,0,1-1.285,3.29l-.948.722c-.537.415-.787.725-.807,1-.022.3.188.73.68,1.384a30.065,30.065,0,0,0,2.794,3.235,30.534,30.534,0,0,0,3.232,2.794,2.477,2.477,0,0,0,1.385.676c.282-.021.584-.264,1.01-.812l.712-.941a3.4,3.4,0,0,1,3.293-1.287l5.637,1a2.7,2.7,0,0,1,2.236,2.663c0,.516,0,1.04.008,1.546v.307c0,.734.008,1.492.008,2.239,0,.08.006.18.013.285l0,.088a3.658,3.658,0,0,1-.435,2.358h0A2.584,2.584,0,0,1,291.991,1518.272Zm-.251-.992.13,0,.121,0a1.579,1.579,0,0,0,1.5-.643h0a2.8,2.8,0,0,0,.272-1.766l0-.071c-.008-.121-.015-.236-.015-.349,0-.744,0-1.5-.008-2.234v-.3c0-.508-.008-1.034-.008-1.553a1.715,1.715,0,0,0-1.42-1.691l-5.635-1a2.41,2.41,0,0,0-2.337.911l-.717.947a2.59,2.59,0,0,1-1.719,1.194,3.142,3.142,0,0,1-2.052-.871,31.518,31.518,0,0,1-3.337-2.886,31.065,31.065,0,0,1-2.885-3.34,3.133,3.133,0,0,1-.876-2.05,2.567,2.567,0,0,1,1.191-1.715l.951-.724a2.4,2.4,0,0,0,.911-2.333l-1-5.639a1.721,1.721,0,0,0-1.693-1.42c-.6,0-1.212,0-1.8-.008h-.52l-.877,0-.887,0c-.1,0-.209-.005-.331-.012l-.1-.005a2.821,2.821,0,0,0-1.753.272,1.785,1.785,0,0,0-.639,1.744v.013c0,.038,0,.076,0,.114s0,.089,0,.132a23.79,23.79,0,0,0,.643,5.166,25.011,25.011,0,0,0,6.973,12.434l.064.06a25.043,25.043,0,0,0,12.432,6.975,23.885,23.885,0,0,0,5.027.647h.005Z" transform="translate(-265.217 -1488.707)" fill="#334d5e"/></g></g></g></svg>