<?xml version="1.0" encoding="utf-8"?>
<!-- Generator: Adobe Illustrator 24.1.0, SVG Export Plug-In . SVG Version: 6.00 Build 0)  -->
<svg version="1.1" id="Layer_1" xmlns="http://www.w3.org/2000/svg" xmlns:xlink="http://www.w3.org/1999/xlink" x="0px" y="0px"
	 viewBox="0 0 27.4 34.6" style="enable-background:new 0 0 27.4 34.6;" xml:space="preserve">
<style type="text/css">
	.st0{fill:#FFFFFF;}
</style>
<path class="st0" d="M23.4,4C18-1.3,9.4-1.3,4,4c-4.2,4.2-5.2,10.5-2.6,15.8c1.7,3.5,8.6,11.4,11.8,14.6c0.3,0.3,0.7,0.3,1,0
	c3.2-3.2,10-11.1,11.8-14.6C28.6,14.6,27.6,8.2,23.4,4z M24.7,19.2c-1.6,3.1-7.8,10.3-11,13.7c-3.2-3.3-9.4-10.5-11-13.7
	c-0.9-1.7-1.3-3.6-1.3-5.5c0-6.8,5.5-12.3,12.3-12.3C20.5,1.4,26,6.9,26,13.7C26,15.6,25.5,17.5,24.7,19.2z"/>
<path class="st0" d="M21.4,11.2c-0.1-0.3-0.3-0.4-0.6-0.5l-4.4-0.8L14.3,6c-0.2-0.4-0.6-0.5-1-0.3c-0.1,0.1-0.2,0.2-0.3,0.3L11,9.9
	l-4.4,0.8c-0.4,0.1-0.7,0.4-0.6,0.8c0,0.1,0.1,0.3,0.2,0.4l3.1,3.2l-0.6,4.4c-0.1,0.4,0.2,0.8,0.6,0.8c0.1,0,0.3,0,0.4-0.1l4-1.9
	l4,1.9c0.1,0,0.2,0.1,0.3,0.1c0.4,0,0.7-0.3,0.7-0.7c0,0,0-0.1,0-0.1l-0.6-4.4l3.1-3.2C21.4,11.7,21.5,11.5,21.4,11.2z M16.8,14.4
	c-0.2,0.2-0.2,0.4-0.2,0.6l0.5,3.4L14,16.9c-0.2-0.1-0.4-0.1-0.6,0l-3.1,1.5l0.5-3.4c0-0.2,0-0.4-0.2-0.6l-2.4-2.5l3.4-0.6
	c0.2,0,0.4-0.2,0.5-0.4l1.6-3l1.6,3c0.1,0.2,0.3,0.3,0.5,0.4l3.4,0.6L16.8,14.4z"/>
</svg>
