<svg xmlns="http://www.w3.org/2000/svg" width="34.321" height="30.662" viewBox="0 0 34.321 30.662"><path d="M354.035,438.18H321.153a.72.72,0,0,1-.719-.72V410.442a.719.719,0,0,1,.719-.719h32.882a.719.719,0,0,1,.72.719V437.46A.72.72,0,0,1,354.035,438.18Zm-32.162-1.44h31.442V411.162H321.873Z" transform="translate(-320.434 -407.518)" fill="#334d5e"/><path d="M327.581,413.559a.721.721,0,0,1-.72-.72v-4.6a.72.72,0,0,1,1.44,0v4.6A.72.72,0,0,1,327.581,413.559Z" transform="translate(-320.434 -407.518)" fill="#334d5e"/><path d="M334.257,413.559a.72.72,0,0,1-.72-.72v-4.6a.72.72,0,0,1,1.44,0v4.6A.721.721,0,0,1,334.257,413.559Z" transform="translate(-320.434 -407.518)" fill="#334d5e"/><path d="M340.932,413.559a.72.72,0,0,1-.72-.72v-4.6a.719.719,0,0,1,1.439,0v4.6A.72.72,0,0,1,340.932,413.559Z" transform="translate(-320.434 -407.518)" fill="#334d5e"/><path d="M347.606,413.559a.72.72,0,0,1-.719-.72v-4.6a.719.719,0,0,1,1.439,0v4.6A.72.72,0,0,1,347.606,413.559Z" transform="translate(-320.434 -407.518)" fill="#334d5e"/><path d="M327.054,420.868a.72.72,0,0,1-.72-.72v-1.156a.719.719,0,1,1,1.439,0v1.156A.719.719,0,0,1,327.054,420.868Z" transform="translate(-320.434 -407.518)" fill="#334d5e"/><path d="M332.331,420.868a.72.72,0,0,1-.72-.72v-1.156a.72.72,0,1,1,1.44,0v1.156A.72.72,0,0,1,332.331,420.868Z" transform="translate(-320.434 -407.518)" fill="#334d5e"/><path d="M337.608,420.868a.719.719,0,0,1-.719-.72v-1.156a.719.719,0,1,1,1.439,0v1.156A.72.72,0,0,1,337.608,420.868Z" transform="translate(-320.434 -407.518)" fill="#334d5e"/><path d="M342.887,420.868a.72.72,0,0,1-.72-.72v-1.156a.719.719,0,1,1,1.439,0v1.156A.719.719,0,0,1,342.887,420.868Z" transform="translate(-320.434 -407.518)" fill="#334d5e"/><path d="M327.054,432.55a.72.72,0,0,1-.72-.72v-1.176a.719.719,0,0,1,1.439,0v1.176A.719.719,0,0,1,327.054,432.55Z" transform="translate(-320.434 -407.518)" fill="#334d5e"/><path d="M332.331,432.55a.72.72,0,0,1-.72-.72v-1.176a.72.72,0,0,1,1.44,0v1.176A.72.72,0,0,1,332.331,432.55Z" transform="translate(-320.434 -407.518)" fill="#334d5e"/><path d="M337.608,432.55a.719.719,0,0,1-.719-.72v-1.176a.719.719,0,0,1,1.439,0v1.176A.72.72,0,0,1,337.608,432.55Z" transform="translate(-320.434 -407.518)" fill="#334d5e"/><path d="M348.135,420.85a.72.72,0,0,1-.72-.72v-1.156a.719.719,0,1,1,1.439,0v1.156A.72.72,0,0,1,348.135,420.85Z" transform="translate(-320.434 -407.518)" fill="#334d5e"/><path d="M327.053,426.715a.72.72,0,0,1-.72-.72V424.82a.719.719,0,0,1,1.439,0v1.175A.719.719,0,0,1,327.053,426.715Z" transform="translate(-320.434 -407.518)" fill="#334d5e"/><path d="M343.967,428.259h-2.3a1.68,1.68,0,0,1-1.678-1.679v-2.287a1.68,1.68,0,0,1,1.678-1.679h2.3a1.681,1.681,0,0,1,1.679,1.679v2.287A1.681,1.681,0,0,1,343.967,428.259Zm-2.3-4.205a.241.241,0,0,0-.238.239v2.287a.241.241,0,0,0,.238.239h2.3a.242.242,0,0,0,.239-.239v-2.287a.239.239,0,0,0-.239-.239Z" transform="translate(-320.434 -407.518)" fill="#334d5e"/><path d="M348.134,426.715a.72.72,0,0,1-.72-.72V424.82a.72.72,0,0,1,1.44,0v1.175A.72.72,0,0,1,348.134,426.715Z" transform="translate(-320.434 -407.518)" fill="#334d5e"/><path d="M337.578,426.715a.72.72,0,0,1-.72-.72V424.82a.72.72,0,0,1,1.44,0v1.175A.72.72,0,0,1,337.578,426.715Z" transform="translate(-320.434 -407.518)" fill="#334d5e"/><path d="M332.3,426.715a.72.72,0,0,1-.72-.72V424.82a.72.72,0,0,1,1.44,0v1.175A.72.72,0,0,1,332.3,426.715Z" transform="translate(-320.434 -407.518)" fill="#334d5e"/></svg>