<?xml version="1.0" encoding="utf-8"?>
<!-- Generator: Adobe Illustrator 24.1.0, SVG Export Plug-In . SVG Version: 6.00 Build 0)  -->
<svg version="1.1" id="Layer_1" xmlns="http://www.w3.org/2000/svg" xmlns:xlink="http://www.w3.org/1999/xlink" x="0px" y="0px"
	 viewBox="0 0 37.9 37.9" style="enable-background:new 0 0 37.9 37.9;" xml:space="preserve">
<style type="text/css">
	.st0{fill:#FFFFFF;}
</style>
<g transform="translate(270.057 -1489.637) rotate(20)">
	<g transform="translate(265.217 1488.707)">
		<g transform="translate(0 0)">
			<path class="st0" d="M26.8,29.6h-0.1h-0.1h0h-0.4c-1.8,0-3.5-0.3-5.2-0.7C16,27.8,11.5,25.3,8,21.7l-0.1-0.1
				c-3.6-3.5-6.1-8-7.2-12.9C0.3,6.9,0,5.1,0,3.3c0,0,0-0.1,0-0.1c0,0,0-0.1,0-0.1c-0.1-1,0.3-2,1.1-2.6C1.8,0.1,2.6-0.1,3.5,0
				l0.1,0c0.1,0,0.2,0,0.3,0l0.9,0l0.9,0l0.5,0c0.6,0,1.2,0,1.8,0c1.3,0,2.4,0.9,2.7,2.2l1,5.6c0.2,1.3-0.3,2.5-1.3,3.3l-0.9,0.7
				c-0.5,0.4-0.8,0.7-0.8,1c0,0.3,0.2,0.7,0.7,1.4c0.9,1.1,1.8,2.2,2.8,3.2c1,1,2.1,1.9,3.2,2.8c0.4,0.4,0.9,0.6,1.4,0.7
				c0.3,0,0.6-0.3,1-0.8l0.7-0.9c0.8-1,2-1.5,3.3-1.3l5.6,1c1.3,0.2,2.2,1.3,2.2,2.7c0,0.5,0,1,0,1.5v0.3c0,0.7,0,1.5,0,2.2
				c0,0.1,0,0.2,0,0.3v0.1c0.1,0.8,0,1.6-0.4,2.4l0,0C28.6,29.2,27.7,29.6,26.8,29.6z M26.5,28.6h0.1h0.1c0.6,0.1,1.2-0.2,1.5-0.6
				l0,0c0.3-0.5,0.4-1.2,0.3-1.8v-0.1c0-0.1,0-0.2,0-0.3c0-0.7,0-1.5,0-2.2v-0.3c0-0.5,0-1,0-1.6c0-0.8-0.6-1.5-1.4-1.7l-5.6-1
				c-0.9-0.2-1.8,0.2-2.3,0.9l-0.7,0.9c-0.4,0.6-1,1.1-1.7,1.2c-0.8,0-1.5-0.3-2.1-0.9c-1.2-0.9-2.3-1.8-3.3-2.9c-1-1-2-2.2-2.9-3.3
				c-0.5-0.6-0.8-1.3-0.9-2.1c0.1-0.7,0.6-1.3,1.2-1.7l1-0.7c0.7-0.5,1.1-1.4,0.9-2.3l-1-5.6C9.4,1.6,8.7,1,7.9,1C7.3,1,6.7,1,6.1,1
				L5.6,1L4.7,1L3.8,1C3.7,1,3.6,1,3.5,1L3.4,1C2.8,0.9,2.2,1,1.6,1.3C1.1,1.7,0.9,2.4,1,3v0c0,0,0,0.1,0,0.1c0,0,0,0.1,0,0.1
				C1,5,1.2,6.8,1.6,8.5c1.1,4.7,3.5,9.1,7,12.4l0.1,0.1c3.4,3.5,7.7,5.9,12.4,7c1.6,0.4,3.3,0.6,5,0.6h0L26.5,28.6z"/>
		</g>
		<g transform="translate(0 0)">
			<path class="st0" d="M26.8,29.6h-0.1h-0.1h0h-0.4c-1.8,0-3.5-0.3-5.2-0.7C16,27.8,11.5,25.3,8,21.7l-0.1-0.1
				c-3.6-3.5-6.1-8-7.2-12.9C0.3,6.9,0,5.1,0,3.3c0,0,0-0.1,0-0.1c0,0,0-0.1,0-0.1c-0.1-1,0.3-2,1.1-2.6C1.8,0.1,2.6-0.1,3.5,0
				l0.1,0c0.1,0,0.2,0,0.3,0l0.9,0l0.9,0l0.5,0c0.6,0,1.2,0,1.8,0c1.3,0,2.4,0.9,2.7,2.2l1,5.6c0.2,1.3-0.3,2.5-1.3,3.3l-0.9,0.7
				c-0.5,0.4-0.8,0.7-0.8,1c0,0.3,0.2,0.7,0.7,1.4c0.9,1.1,1.8,2.2,2.8,3.2c1,1,2.1,1.9,3.2,2.8c0.4,0.4,0.9,0.6,1.4,0.7
				c0.3,0,0.6-0.3,1-0.8l0.7-0.9c0.8-1,2-1.5,3.3-1.3l5.6,1c1.3,0.2,2.2,1.3,2.2,2.7c0,0.5,0,1,0,1.5v0.3c0,0.7,0,1.5,0,2.2
				c0,0.1,0,0.2,0,0.3v0.1c0.1,0.8,0,1.6-0.4,2.4l0,0C28.6,29.2,27.7,29.6,26.8,29.6z M26.5,28.6h0.1h0.1c0.6,0.1,1.2-0.2,1.5-0.6
				l0,0c0.3-0.5,0.4-1.2,0.3-1.8v-0.1c0-0.1,0-0.2,0-0.3c0-0.7,0-1.5,0-2.2v-0.3c0-0.5,0-1,0-1.6c0-0.8-0.6-1.5-1.4-1.7l-5.6-1
				c-0.9-0.2-1.8,0.2-2.3,0.9l-0.7,0.9c-0.4,0.6-1,1.1-1.7,1.2c-0.8,0-1.5-0.3-2.1-0.9c-1.2-0.9-2.3-1.8-3.3-2.9c-1-1-2-2.2-2.9-3.3
				c-0.5-0.6-0.8-1.3-0.9-2.1c0.1-0.7,0.6-1.3,1.2-1.7l1-0.7c0.7-0.5,1.1-1.4,0.9-2.3l-1-5.6C9.4,1.6,8.7,1,7.9,1C7.3,1,6.7,1,6.1,1
				L5.6,1L4.7,1L3.8,1C3.7,1,3.6,1,3.5,1L3.4,1C2.8,0.9,2.2,1,1.6,1.3C1.1,1.7,0.9,2.4,1,3v0c0,0,0,0.1,0,0.1c0,0,0,0.1,0,0.1
				C1,5,1.2,6.8,1.6,8.5c1.1,4.7,3.5,9.1,7,12.4l0.1,0.1c3.4,3.5,7.7,5.9,12.4,7c1.6,0.4,3.3,0.6,5,0.6h0L26.5,28.6z"/>
		</g>
	</g>
</g>
</svg>
