<?xml version="1.0" encoding="utf-8"?>
<!-- Generator: Adobe Illustrator 24.1.0, SVG Export Plug-In . SVG Version: 6.00 Build 0)  -->
<svg version="1.1" id="Layer_1" xmlns="http://www.w3.org/2000/svg" xmlns:xlink="http://www.w3.org/1999/xlink" x="0px" y="0px"
	 viewBox="0 0 34.3 30.7" style="enable-background:new 0 0 34.3 30.7;" xml:space="preserve">
<style type="text/css">
	.st0{fill:#FFFFFF;}
</style>
<path class="st0" d="M33.6,30.7H0.7c-0.4,0-0.7-0.3-0.7-0.7v-27c0-0.4,0.3-0.7,0.7-0.7h32.9c0.4,0,0.7,0.3,0.7,0.7c0,0,0,0,0,0v27
	C34.3,30.3,34,30.7,33.6,30.7L33.6,30.7z M1.4,29.2h31.4V3.6H1.4L1.4,29.2z"/>
<path class="st0" d="M7.1,6C6.7,6,6.4,5.7,6.4,5.3V0.7C6.4,0.3,6.7,0,7.1,0s0.7,0.3,0.7,0.7l0,0v4.6C7.9,5.7,7.5,6,7.1,6L7.1,6z"/>
<path class="st0" d="M13.8,6c-0.4,0-0.7-0.3-0.7-0.7l0,0V0.7c0-0.4,0.3-0.7,0.7-0.7s0.7,0.3,0.7,0.7l0,0v4.6C14.5,5.7,14.2,6,13.8,6
	z"/>
<path class="st0" d="M20.5,6c-0.4,0-0.7-0.3-0.7-0.7l0,0V0.7c0-0.4,0.3-0.7,0.7-0.7c0.4,0,0.7,0.3,0.7,0.7l0,0v4.6
	C21.2,5.7,20.9,6,20.5,6z"/>
<path class="st0" d="M27.2,6c-0.4,0-0.7-0.3-0.7-0.7V0.7c0-0.4,0.3-0.7,0.7-0.7c0.4,0,0.7,0.3,0.7,0.7l0,0v4.6
	C27.9,5.7,27.6,6,27.2,6L27.2,6z"/>
<path class="st0" d="M6.6,13.4c-0.4,0-0.7-0.3-0.7-0.7l0,0v-1.2c0-0.4,0.3-0.7,0.7-0.7c0.4,0,0.7,0.3,0.7,0.7l0,0v1.2
	C7.3,13,7,13.3,6.6,13.4C6.6,13.4,6.6,13.4,6.6,13.4z"/>
<path class="st0" d="M11.9,13.4c-0.4,0-0.7-0.3-0.7-0.7l0,0v-1.2c0-0.4,0.3-0.7,0.7-0.7s0.7,0.3,0.7,0.7v1.2
	C12.6,13,12.3,13.4,11.9,13.4L11.9,13.4z"/>
<path class="st0" d="M17.2,13.4c-0.4,0-0.7-0.3-0.7-0.7c0,0,0,0,0,0v-1.2c0-0.4,0.3-0.7,0.7-0.7c0.4,0,0.7,0.3,0.7,0.7l0,0v1.2
	C17.9,13,17.6,13.4,17.2,13.4L17.2,13.4z"/>
<path class="st0" d="M22.5,13.4c-0.4,0-0.7-0.3-0.7-0.7l0,0v-1.2c0-0.4,0.3-0.7,0.7-0.7c0.4,0,0.7,0.3,0.7,0.7l0,0v1.2
	C23.2,13,22.9,13.3,22.5,13.4C22.5,13.4,22.5,13.4,22.5,13.4z"/>
<path class="st0" d="M6.6,25c-0.4,0-0.7-0.3-0.7-0.7l0,0v-1.2c0-0.4,0.3-0.7,0.7-0.7c0.4,0,0.7,0.3,0.7,0.7v1.2
	C7.3,24.7,7,25,6.6,25C6.6,25,6.6,25,6.6,25z"/>
<path class="st0" d="M11.9,25c-0.4,0-0.7-0.3-0.7-0.7l0,0v-1.2c0-0.4,0.3-0.7,0.7-0.7s0.7,0.3,0.7,0.7l0,0v1.2
	C12.6,24.7,12.3,25,11.9,25L11.9,25z"/>
<path class="st0" d="M17.2,25c-0.4,0-0.7-0.3-0.7-0.7c0,0,0,0,0,0v-1.2c0-0.4,0.3-0.7,0.7-0.7c0.4,0,0.7,0.3,0.7,0.7v1.2
	C17.9,24.7,17.6,25,17.2,25L17.2,25z"/>
<path class="st0" d="M27.7,13.3c-0.4,0-0.7-0.3-0.7-0.7l0,0v-1.2c0-0.4,0.3-0.7,0.7-0.7c0.4,0,0.7,0.3,0.7,0.7l0,0v1.2
	C28.4,13,28.1,13.3,27.7,13.3z"/>
<path class="st0" d="M6.6,19.2c-0.4,0-0.7-0.3-0.7-0.7l0,0v-1.2c0-0.4,0.3-0.7,0.7-0.7c0.4,0,0.7,0.3,0.7,0.7l0,0v1.2
	C7.3,18.9,7,19.2,6.6,19.2C6.6,19.2,6.6,19.2,6.6,19.2z"/>
<path class="st0" d="M23.5,20.7h-2.3c-0.9,0-1.7-0.8-1.7-1.7v-2.3c0-0.9,0.8-1.7,1.7-1.7h2.3c0.9,0,1.7,0.8,1.7,1.7v2.3
	C25.2,20,24.5,20.7,23.5,20.7z M21.2,16.5c-0.1,0-0.2,0.1-0.2,0.2v2.3c0,0.1,0.1,0.2,0.2,0.2h2.3c0.1,0,0.2-0.1,0.2-0.2v-2.3
	c0-0.1-0.1-0.2-0.2-0.2h0H21.2z"/>
<path class="st0" d="M27.7,19.2c-0.4,0-0.7-0.3-0.7-0.7l0,0v-1.2c0-0.4,0.3-0.7,0.7-0.7s0.7,0.3,0.7,0.7l0,0v1.2
	C28.4,18.9,28.1,19.2,27.7,19.2L27.7,19.2z"/>
<path class="st0" d="M17.1,19.2c-0.4,0-0.7-0.3-0.7-0.7l0,0v-1.2c0-0.4,0.3-0.7,0.7-0.7s0.7,0.3,0.7,0.7l0,0v1.2
	C17.9,18.9,17.5,19.2,17.1,19.2L17.1,19.2z"/>
<path class="st0" d="M11.9,19.2c-0.4,0-0.7-0.3-0.7-0.7l0,0v-1.2c0-0.4,0.3-0.7,0.7-0.7s0.7,0.3,0.7,0.7l0,0v1.2
	C12.6,18.9,12.3,19.2,11.9,19.2L11.9,19.2z"/>
</svg>
