<svg xmlns="http://www.w3.org/2000/svg" width="413.869" height="85.491" viewBox="0 0 413.869 85.491"><g transform="translate(0 74.157)"><g transform="translate(254.333)"><path d="M278.651,144.006a6.1,6.1,0,0,1,.434-2.346,5.141,5.141,0,0,1,1.212-1.789,5.322,5.322,0,0,1,1.842-1.136,7.06,7.06,0,0,1,4.663,0,5.326,5.326,0,0,1,1.843,1.136,5.138,5.138,0,0,1,1.211,1.789,6.564,6.564,0,0,1,0,4.692,5.154,5.154,0,0,1-1.211,1.791,5.341,5.341,0,0,1-1.843,1.134,7.059,7.059,0,0,1-4.663,0,5.336,5.336,0,0,1-1.842-1.134,5.157,5.157,0,0,1-1.212-1.791A6.09,6.09,0,0,1,278.651,144.006Zm2.467,0a3.962,3.962,0,0,0,.237,1.395,3.194,3.194,0,0,0,.678,1.1,3.073,3.073,0,0,0,1.058.724,3.8,3.8,0,0,0,2.757,0,3.089,3.089,0,0,0,1.059-.724,3.19,3.19,0,0,0,.677-1.1,4.2,4.2,0,0,0,0-2.781,3.187,3.187,0,0,0-.677-1.105,3.1,3.1,0,0,0-1.059-.723,3.8,3.8,0,0,0-2.757,0,3.087,3.087,0,0,0-1.058.723,3.191,3.191,0,0,0-.678,1.105A3.986,3.986,0,0,0,281.118,144.006Z" transform="translate(-278.651 -138.339)" fill="#858688"/><path d="M293.548,138.573h7.236v2.194h-4.859v2.194h4.494v2.194h-4.494v4.2h-2.378Z" transform="translate(-276.09 -138.299)" fill="#858688"/><path d="M311.085,138.573h2.59l1.721,6.917h.03l2.255-6.917h2.209l2.24,7.1h.03l1.813-7.1h2.407l-3.154,10.786h-2.118l-2.377-7.465h-.03l-2.377,7.465h-2.041Z" transform="translate(-273.076 -138.299)" fill="#858688"/><path d="M328.532,138.573h2.375v10.786h-2.375Z" transform="translate(-270.077 -138.299)" fill="#858688"/><path d="M341.366,141.249a1.682,1.682,0,0,0-.785-.54,2.792,2.792,0,0,0-.935-.176,2.509,2.509,0,0,0-.534.061,2.093,2.093,0,0,0-.518.19,1.138,1.138,0,0,0-.4.343.868.868,0,0,0-.152.518.857.857,0,0,0,.366.746,3.484,3.484,0,0,0,.922.442q.555.183,1.2.366a4.911,4.911,0,0,1,1.2.518,2.846,2.846,0,0,1,.921.9,2.738,2.738,0,0,1,.367,1.508,3.459,3.459,0,0,1-.336,1.569,3.189,3.189,0,0,1-.906,1.112,3.858,3.858,0,0,1-1.325.655,5.853,5.853,0,0,1-1.593.213,5.774,5.774,0,0,1-1.95-.32,4.9,4.9,0,0,1-1.676-1.036l1.691-1.859a2.463,2.463,0,0,0,.922.755,2.638,2.638,0,0,0,1.15.266,2.6,2.6,0,0,0,.587-.068,1.921,1.921,0,0,0,.533-.206,1.15,1.15,0,0,0,.38-.35.869.869,0,0,0,.145-.5.912.912,0,0,0-.373-.769,3.458,3.458,0,0,0-.938-.48q-.562-.2-1.219-.4a5.448,5.448,0,0,1-1.219-.533,2.947,2.947,0,0,1-.938-.884,2.532,2.532,0,0,1-.373-1.447,3.241,3.241,0,0,1,.343-1.523,3.3,3.3,0,0,1,.914-1.1,3.972,3.972,0,0,1,1.317-.663,5.424,5.424,0,0,1,1.54-.22,6.059,6.059,0,0,1,1.766.259,4.075,4.075,0,0,1,1.539.868Z" transform="translate(-268.926 -138.339)" fill="#858688"/><path d="M354.026,141.416a2.328,2.328,0,0,0-.861-.655,2.861,2.861,0,0,0-1.18-.229,2.957,2.957,0,0,0-2.232.982,3.362,3.362,0,0,0-.654,1.105,4.2,4.2,0,0,0,0,2.781,3.453,3.453,0,0,0,.646,1.1,2.93,2.93,0,0,0,.969.724,2.8,2.8,0,0,0,1.2.259,2.686,2.686,0,0,0,1.295-.3,2.571,2.571,0,0,0,.929-.853l1.98,1.478a4.125,4.125,0,0,1-1.737,1.417,5.372,5.372,0,0,1-2.163.457,6.648,6.648,0,0,1-2.331-.4,5.331,5.331,0,0,1-1.843-1.134,5.157,5.157,0,0,1-1.212-1.791,6.564,6.564,0,0,1,0-4.692,5.141,5.141,0,0,1,1.212-1.789,5.317,5.317,0,0,1,1.843-1.136,6.648,6.648,0,0,1,2.331-.4,5.774,5.774,0,0,1,.952.083,5.166,5.166,0,0,1,.975.267,4.331,4.331,0,0,1,.922.488,3.724,3.724,0,0,1,.792.746Z" transform="translate(-267.006 -138.339)" fill="#858688"/><path d="M358.808,144.006a6.1,6.1,0,0,1,.434-2.346,5.153,5.153,0,0,1,1.211-1.789,5.332,5.332,0,0,1,1.845-1.136,7.057,7.057,0,0,1,4.662,0,5.3,5.3,0,0,1,1.842,1.136,5.128,5.128,0,0,1,1.213,1.789,6.564,6.564,0,0,1,0,4.692,5.144,5.144,0,0,1-1.213,1.791,5.314,5.314,0,0,1-1.842,1.134,7.056,7.056,0,0,1-4.662,0,5.346,5.346,0,0,1-1.845-1.134,5.169,5.169,0,0,1-1.211-1.791A6.09,6.09,0,0,1,358.808,144.006Zm2.468,0a3.962,3.962,0,0,0,.236,1.395,3.176,3.176,0,0,0,.679,1.1,3.085,3.085,0,0,0,1.058.724,3.8,3.8,0,0,0,2.759,0,3.1,3.1,0,0,0,1.058-.724,3.208,3.208,0,0,0,.677-1.1,4.222,4.222,0,0,0,0-2.781,3.205,3.205,0,0,0-.677-1.105,3.109,3.109,0,0,0-1.058-.723,3.8,3.8,0,0,0-2.759,0,3.1,3.1,0,0,0-1.058.723,3.173,3.173,0,0,0-.679,1.105A3.986,3.986,0,0,0,361.276,144.006Z" transform="translate(-264.872 -138.339)" fill="#858688"/><path d="M373.627,138.573h3.231l4.586,7.5h.03v-7.5h2.377v10.786h-3.108l-4.707-7.678H376v7.678h-2.378Z" transform="translate(-262.325 -138.299)" fill="#858688"/><path d="M393.184,141.249a1.693,1.693,0,0,0-.785-.54,2.8,2.8,0,0,0-.938-.176,2.5,2.5,0,0,0-.533.061,2.11,2.11,0,0,0-.518.19,1.135,1.135,0,0,0-.395.343.868.868,0,0,0-.152.518.856.856,0,0,0,.364.746,3.465,3.465,0,0,0,.922.442q.555.183,1.2.366a4.914,4.914,0,0,1,1.194.518,2.838,2.838,0,0,1,.922.9,2.739,2.739,0,0,1,.366,1.508,3.459,3.459,0,0,1-.335,1.569,3.166,3.166,0,0,1-.907,1.112,3.842,3.842,0,0,1-1.324.655,6.081,6.081,0,0,1-3.543-.107,4.908,4.908,0,0,1-1.676-1.036l1.692-1.859a2.468,2.468,0,0,0,.921.755,2.6,2.6,0,0,0,1.737.2,1.885,1.885,0,0,0,.532-.206,1.147,1.147,0,0,0,.382-.35.878.878,0,0,0,.145-.5.913.913,0,0,0-.374-.769,3.441,3.441,0,0,0-.938-.48q-.564-.2-1.219-.4a5.473,5.473,0,0,1-1.219-.533,2.943,2.943,0,0,1-.936-.884,2.532,2.532,0,0,1-.374-1.447,3.241,3.241,0,0,1,.343-1.523,3.3,3.3,0,0,1,.914-1.1,3.988,3.988,0,0,1,1.318-.663,5.413,5.413,0,0,1,1.538-.22,6.075,6.075,0,0,1,1.768.259,4.08,4.08,0,0,1,1.538.868Z" transform="translate(-260.019 -138.339)" fill="#858688"/><path d="M398.678,138.573h2.378v10.786h-2.378Z" transform="translate(-258.018 -138.299)" fill="#858688"/><path d="M406.062,138.573h3.231l4.586,7.5h.029v-7.5h2.378v10.786h-3.109l-4.706-7.678h-.032v7.678h-2.377Z" transform="translate(-256.749 -138.299)" fill="#858688"/></g><path d="M307.582,144.627H62.211a.586.586,0,0,1,0-1.172H307.582a.586.586,0,0,1,0,1.172Z" transform="translate(-61.625 -137.46)" fill="#858688"/></g><g transform="translate(1.956)"><g transform="translate(204.635 13.275)"><path d="M263.414,122.033h-25.5V86.8H263v7.067H248.113v6.457h14.2v7.092h-14.2v7.525h15.3Z" transform="translate(-237.912 -86.317)" fill="#126abf"/><path d="M289.876,94.783l-16.888,37.648H264.1l6.833-15.151-9.836-22.5h9.444l5.052,12.863,5.735-12.863Z" transform="translate(-233.926 -84.945)" fill="#126abf"/><path d="M311.83,110h-17.5a6.387,6.387,0,0,0,2.514,3.864,7.366,7.366,0,0,0,4.539,1.5,22.83,22.83,0,0,0,9.81-2.592v5.668a26.2,26.2,0,0,1-4.672,1.894,24.077,24.077,0,0,1-6.993.852,15.922,15.922,0,0,1-7.808-1.78,11.625,11.625,0,0,1-4.821-4.829,14.675,14.675,0,0,1-1.6-6.914,14.345,14.345,0,0,1,1.6-6.826,11.317,11.317,0,0,1,4.821-4.729,16.417,16.417,0,0,1,7.808-1.716,13.287,13.287,0,0,1,5.844,1.361,10.861,10.861,0,0,1,4.637,4.449,15.561,15.561,0,0,1,1.819,7.969Zm-8.249-4.525A6.212,6.212,0,0,0,302.4,101.5a4.1,4.1,0,0,0-3.4-1.487,4.538,4.538,0,0,0-3.551,1.513,5.7,5.7,0,0,0-1.355,3.953Z" transform="translate(-229.766 -85.012)" fill="#126abf"/><path d="M350.785,119.46a23.784,23.784,0,0,1-4.295,1.831,26.18,26.18,0,0,1-4.43.979,35.682,35.682,0,0,1-4.624.293,23.109,23.109,0,0,1-7.92-1.272,17.009,17.009,0,0,1-6.076-3.749,15.91,15.91,0,0,1-3.856-5.8,20.055,20.055,0,0,1-1.281-7.283,19.545,19.545,0,0,1,1.513-7.97,15.325,15.325,0,0,1,4.233-5.681,17.908,17.908,0,0,1,6.2-3.342,24.561,24.561,0,0,1,7.334-1.08,38.54,38.54,0,0,1,13.056,2.67l-2.915,7.48c-1.719-.731-1.468-.6-2.052-.833a15.217,15.217,0,0,0-5.77-1.08,12.663,12.663,0,0,0-5.516,1.22,10.3,10.3,0,0,0-4.125,3.483,9.592,9.592,0,0,0-.2,10.181,9.811,9.811,0,0,0,3.8,3.533,11.352,11.352,0,0,0,5.479,1.309,17.034,17.034,0,0,0,4.662-.622,27.077,27.077,0,0,0,3.7-1.385c.271-.121.332-.151.545-.264Z" transform="translate(-224.093 -86.388)" fill="#126abf"/><path d="M361.925,101.282c-.422-.754-1.546-1.068-3.174-1.068a11.133,11.133,0,0,0-5.344,1.322,18.725,18.725,0,0,0-4.514,3.407V97.925a15.994,15.994,0,0,1,3.538-2,20.2,20.2,0,0,1,3.977-1.155,23.162,23.162,0,0,1,4.2-.382q5.393,0,8.114,2.174a7.24,7.24,0,0,1,2.721,5.986v9.992a6.559,6.559,0,0,0,.257,2.122.941.941,0,0,0,.94.7,5.3,5.3,0,0,0,2.244-.737v4.8a37.672,37.672,0,0,1-3.561,1.27,13.993,13.993,0,0,1-3.931.484,4.426,4.426,0,0,1-3.025-.8,4.5,4.5,0,0,1-1.221-1.945,13.248,13.248,0,0,1-3.148,1.97,11.232,11.232,0,0,1-4.539.776,8.621,8.621,0,0,1-4.382-.979,5.515,5.515,0,0,1-2.343-2.466,7.37,7.37,0,0,1-.672-3.065,6.457,6.457,0,0,1,1.159-3.952,9.544,9.544,0,0,1,2.749-2.622,23.482,23.482,0,0,1,5.792-2.529S363.758,104.556,361.925,101.282Zm.731,13.193v-6.127a23.861,23.861,0,0,0-4.563,2.378,3.359,3.359,0,0,0-1.439,2.859,2.609,2.609,0,0,0,.719,1.983,2.351,2.351,0,0,0,1.672.686,3.522,3.522,0,0,0,1.793-.52A15.5,15.5,0,0,0,362.657,114.475Z" transform="translate(-218.977 -85.012)" fill="#126abf"/><path d="M382.349,107.018c0-.018-.006-.035-.006-.054s.006-.035.006-.053V106.8h.011a4.91,4.91,0,0,1,9.482-1.661c.108.1.217.173.325.281l3.246-9.177a19.555,19.555,0,0,0-2.647-1.4,6.782,6.782,0,0,0-2.6-.458,6.6,6.6,0,0,0-4.928,2.2,12.918,12.918,0,0,0-2.93,4.512V94.85h-8.786v25.878h8.786V109.594c.014-.04.028-.075.042-.115Z" transform="translate(-214.601 -85.012)" fill="#126abf"/><path d="M418.052,110h-17.5a6.387,6.387,0,0,0,2.514,3.864,7.366,7.366,0,0,0,4.539,1.5,22.83,22.83,0,0,0,9.81-2.592v5.668a26.165,26.165,0,0,1-4.672,1.894,24.074,24.074,0,0,1-6.992.852,15.927,15.927,0,0,1-7.809-1.78,11.621,11.621,0,0,1-4.82-4.829,14.675,14.675,0,0,1-1.6-6.914,14.345,14.345,0,0,1,1.6-6.826,11.314,11.314,0,0,1,4.82-4.729,16.422,16.422,0,0,1,7.809-1.716,13.294,13.294,0,0,1,5.844,1.361,10.865,10.865,0,0,1,4.636,4.449,15.55,15.55,0,0,1,1.819,7.969Zm-8.249-4.525a6.212,6.212,0,0,0-1.184-3.979,4.1,4.1,0,0,0-3.4-1.487,4.54,4.54,0,0,0-3.552,1.513,5.7,5.7,0,0,0-1.355,3.953Z" transform="translate(-211.506 -85.012)" fill="#126abf"/></g><path d="M87.988,111.684a9.892,9.892,0,0,1-1.6,5.651,10.21,10.21,0,0,1-4.474,3.655,16.124,16.124,0,0,1-6.583,1.269q-1.037,0-2.544-.138a27.62,27.62,0,0,1-4-.766,30.511,30.511,0,0,1-5.2-1.859v-8.541a36.014,36.014,0,0,0,4.979,2.713,12.856,12.856,0,0,0,5.245,1.081q2.579,0,3.34-.892a2.661,2.661,0,0,0,.759-1.67,2.875,2.875,0,0,0-1.3-2.374,18.279,18.279,0,0,0-3.786-2A29.6,29.6,0,0,1,68,105.191a11.655,11.655,0,0,1-3.387-3.554,9.429,9.429,0,0,1-1.316-5.05A9.911,9.911,0,0,1,64.621,91.5a9.342,9.342,0,0,1,4.052-3.631,14.835,14.835,0,0,1,6.655-1.356,22.356,22.356,0,0,1,5.173.565,21.812,21.812,0,0,1,3.919,1.269,15.461,15.461,0,0,1,2.122,1.105v8.163a27.208,27.208,0,0,0-4.57-2.738,12.869,12.869,0,0,0-5.4-1.671,4.034,4.034,0,0,0-2.725.754,3.455,3.455,0,0,0-.837,2.324,2.319,2.319,0,0,0,.844,1.784A14.679,14.679,0,0,0,76.872,99.9a59.493,59.493,0,0,1,6.174,3.39,12.414,12.414,0,0,1,3.629,3.479A8.674,8.674,0,0,1,87.988,111.684Z" transform="translate(-63.294 -73.091)" fill="#126abf"/><path d="M196.275,99.209a7.313,7.313,0,0,0-2.941-3.556,9.216,9.216,0,0,0-4.933-1.23,10.5,10.5,0,0,0-5.2,1.256,16.166,16.166,0,0,0-4.354,3.718,7.887,7.887,0,0,0-1.422-2.337,7.1,7.1,0,0,0-1.991-1.583,8.6,8.6,0,0,0-2.229-.816,11.547,11.547,0,0,0-2.387-.239,10.631,10.631,0,0,0-4.679.98,13.282,13.282,0,0,0-3.979,3.141V94.875h-8.681v25.572h8.681V105.426l.081-.107c0-.015,0-.029,0-.045s0-.032,0-.048v-.095h.009a4.384,4.384,0,0,1,8.766,0h0v.056c0,.029.009.057.009.087s-.008.057-.009.087v5.031h-.011v10.055h8.68V105.426l.006-.008v-.095c0-.016,0-.032,0-.048s0-.032,0-.048v-.095h.009a4.414,4.414,0,0,1,8.824,0h.006v.056c0,.029.008.057.008.087s-.008.057-.008.087v1.315c0,.047.006.084.006.131v13.64h8.681v-15.6A14.865,14.865,0,0,0,196.275,99.209Z" transform="translate(-47.791 -71.732)" fill="#126abf"/><path d="M155.35,99.209a7.321,7.321,0,0,0-2.943-3.556,9.216,9.216,0,0,0-4.933-1.23,10.5,10.5,0,0,0-5.2,1.256,16.148,16.148,0,0,0-4.354,3.718,7.865,7.865,0,0,0-1.423-2.337,7.09,7.09,0,0,0-1.99-1.583,8.607,8.607,0,0,0-2.23-.816,11.547,11.547,0,0,0-2.387-.239,10.622,10.622,0,0,0-4.678.98,13.253,13.253,0,0,0-3.979,3.141V94.875h-8.683v25.572h8.683V105.426l.08-.107c0-.015,0-.029,0-.045s0-.032,0-.048v-.095h.009a4.383,4.383,0,0,1,8.765,0h.006v.056c0,.029.008.057.008.087s-.008.057-.008.087v5.031h-.011v10.055h8.68V105.426l.006-.008v-.095c0-.016-.006-.032-.006-.048s0-.032.006-.048v-.095h.009a4.414,4.414,0,0,1,8.824,0h.006v.056c0,.029.008.057.008.087s-.008.057-.008.087v1.315c0,.047,0,.084,0,.131v13.64H156.3v-15.6A14.889,14.889,0,0,0,155.35,99.209Z" transform="translate(-54.826 -71.732)" fill="#126abf"/><path d="M219.826,114.16a3.928,3.928,0,0,1-2.374-.589,2.358,2.358,0,0,1-.954-1.47,12.852,12.852,0,0,1-.168-2.311V101.6h8.295v-6.28h-8.295V91.832A30.2,30.2,0,0,1,203.7,98.2l-.011.009V101.6h3.931v10.2q0,9.545,9.381,9.545a17.789,17.789,0,0,0,4.545-.628,19.926,19.926,0,0,0,3.727-1.307v-7.058A12.479,12.479,0,0,1,219.826,114.16Z" transform="translate(-39.159 -72.177)" fill="#126abf"/><path d="M222.256,87.922a1.751,1.751,0,0,1-1.282-.555,25.87,25.87,0,0,0-38.861,0,1.758,1.758,0,0,1-2.565-2.4,29.38,29.38,0,0,1,43.992,0,1.757,1.757,0,0,1-1.283,2.959Z" transform="translate(-43.392 -75.06)" fill="#858688"/><g transform="translate(154.043 10.095)"><path d="M197.133,90.783a3.593,3.593,0,0,0,4.426-.6,3.692,3.692,0,0,0,1.085-2.687A3.751,3.751,0,0,0,201.56,84.8a3.458,3.458,0,0,0-2.581-1.13A3.408,3.408,0,0,0,196.4,84.8a3.792,3.792,0,0,0-1.061,2.688,3.878,3.878,0,0,0,.482,1.922A3.64,3.64,0,0,0,197.133,90.783Z" transform="translate(-194.638 -83.674)" fill="#126abf"/><path d="M198.851,97.945a28.558,28.558,0,0,1-4.11-.306v22.267h8.7V97.571A28.443,28.443,0,0,1,198.851,97.945Z" transform="translate(-194.741 -81.285)" fill="#126abf"/></g><path d="M103.848,94.809V109.83c-.03.047-.061.087-.091.132v.021c0,.016,0,.032,0,.048s0,.032,0,.049v.094h-.009a4.4,4.4,0,0,1-4.383,4.284A4.334,4.334,0,0,1,96.131,113c-.027-.029-.05-.061-.076-.091a4.414,4.414,0,0,1-1.072-2.732h-.006v-.056c0-.029-.009-.056-.009-.087s.008-.056.009-.086v-5.032H95V94.809H86.315V109.83a17.283,17.283,0,0,0,1.635,7.624q1.637,3.379,7.192,3.379a10.683,10.683,0,0,0,4.848-1.017,13.237,13.237,0,0,0,3.858-3.077v3.642h8.681V94.809Z" transform="translate(-59.337 -71.665)" fill="#126abf"/></g></svg>