<svg version="1.1" id="rm-logo" xmlns="http://www.w3.org/2000/svg" xmlns:xlink="http://www.w3.org/1999/xlink" x="0px" y="0px"
	 width="26.001px" height="10.995px" viewBox="0 0 26.001 10.995" enable-background="new 0 0 26.001 10.995" xml:space="preserve">
<g>
	<path fill="none" d="M21.29,0.092h-0.338c-2.515,0-3.764,1.37-4.116,1.852c-0.429-0.616-1.882-1.86-3.828-1.86
		c-0.249,0-0.335,0.008-0.521,0.008c-2.412,0-4.897,2.589-4.897,5.241v5.663c1.732-0.042,2.699-1.094,2.699-2.315V5.291
		c0-1.053,1.067-2.526,2.578-2.526s2.599,1.432,2.599,2.674c0,1.241,0.021,2.968,0.021,3.41c0,0.947,0.785,2.125,2.699,2.125v-5.81
		c0-1.157,1.208-2.399,2.599-2.399c1.39,0,2.538,1.306,2.538,2.421c0,0.631,0.04,2.104,0.04,3.579c0,1.473,1.49,2.23,2.639,2.23
		V4.786C26.001,2.638,23.423,0.092,21.29,0.092z M8.49,0c0,0-0.806,0-3.465,0C1.943,0,0.01,3.369,0.01,4.791S0,10.93,0,10.93
		c2.084,0,2.688-1.39,2.688-2.274V5.286c0-1.601,1.531-2.591,2.276-2.591c0.332,0,1.098-0.01,1.44-0.01
		C7.916,2.685,8.49,1.169,8.49,0z"/>
</g>
</svg>
