<svg xmlns="http://www.w3.org/2000/svg" width="24.298" height="21.598" viewBox="0 0 24.298 21.598"><path d="M625.146,142.852a7.956,7.956,0,0,0,4.4-7.1c0-.137,0-.275-.011-.415l4.229,7.517Zm-15.684,0,4.228-7.517c-.009.139-.013.278-.013.415a7.957,7.957,0,0,0,4.4,7.1Zm5.531-7.1a6.617,6.617,0,1,1,6.617,6.619A6.624,6.624,0,0,1,614.993,135.75Zm5.978,4.242-.692,1.2h2.663l-.691-1.2,2.067-3.485a3.8,3.8,0,0,1,1.071,2.255l.371,0a4.164,4.164,0,0,0-.932-3.113l1.085-1.828.595.355.03-2.356-2.054,1.154.6.353-.972,1.638a4.138,4.138,0,0,0-2.016-.8v-2h.693l-1.177-2.038-1.177,2.038h.694v2a4.125,4.125,0,0,0-2.016.8l-.973-1.638.6-.353-2.054-1.154.03,2.355.6-.354,1.085,1.828a4.179,4.179,0,0,0-.954,2.659,4.29,4.29,0,0,0,.023.455h.372a3.778,3.778,0,0,1,1.072-2.255Zm1.123-4.586a3.8,3.8,0,0,1,1.454.5l-1.454,2.452Zm-2.424.5a3.791,3.791,0,0,1,1.456-.5v2.952Zm1.94-8.088a7.917,7.917,0,0,0-4.469,1.381l4.469-7.943,4.468,7.943A7.916,7.916,0,0,0,621.61,127.817Z" transform="translate(-609.462 -121.254)" fill="#fff"/></svg>